<mxfile host="app.diagrams.net" modified="2024-05-13T15:41:21.451Z" agent="Mozilla/5.0 (Windows NT 10.0; Win64; x64) AppleWebKit/537.36 (KHTML, like Gecko) Chrome/122.0.0.0 Safari/537.36" version="24.3.1" etag="U-DHkEygHBGpILUOCiLh" type="github">
  <diagram name="Page-1" id="29nIUFQOG-XX_y2JN-Sb">
    <mxGraphModel>
      <root>
        <mxCell id="0" />
        <mxCell id="1" parent="0" />
      </root>
    </mxGraphModel>
  </diagram>
</mxfile>
